<?xml version="1.0" encoding="UTF-8"?>
<svg id="b" data-name="Layer 2" xmlns="http://www.w3.org/2000/svg" width="511.631" height="169.914" viewBox="0 0 511.631 169.914">
  <g id="c" data-name="logos">
    <g id="d" data-name="c">
      <g>
        <path d="M18.926,31.492l1.412.177c3.428,3.409,11.036,6.714,10.861,12.337-.043,1.395-6.784,11.899-7.992,14.661-25.393,58.021,37.703,114.354,93.658,86.288,4.573-2.293,8.57-5.523,12.974-8.071,3.254,4.731,8.314,7.812,10.98,12.985.003.548-.66,1.329-1.048,1.747-2.109,2.276-10.479,7.011-13.551,8.607-38.756,20.153-87.884,7.983-112.099-28.265C-6.318,101.364-4.443,59.873,18.926,31.492Z" fill="#f2efcf"/>
        <path d="M83.269.048c38.059-1.297,74.447,23.735,84.927,60.549,7.669,26.94,2.645,55.916-15.387,77.471-.572.254-7.394-5.464-8.385-6.415-.912-.875-3.838-3.896-3.948-4.949-.166-1.577,6.279-11.111,7.487-13.687,14.348-30.601,2.591-67.16-25.732-84.754-24.63-15.299-55.505-13.399-78.503,4.026l-10.489-12.548c-.772-2.556,4.464-5.241,6.543-6.551C52.73,5.027,67.963.57,83.269.048Z" fill="#f2efcf"/>
        <path d="M386.696,85.845c.046.164.766.871.992.978l43.56.265c1.25.139,1.757,1.335,2.014,2.419.411,1.738.398,11.573-.361,12.75l-1.257.448-58.505.15-3.926-.998-.126-82.628,63.363-.074c.751.697.813,13.474.04,14.849-.185.331-.975.867-1.229.867h-43.825l-.739.739v15.76c0,.163.653.748.492,1.232h38.655c2.078,0,1.22,6.843,1.207,8.107-.025,2.55.066,5.111.026,7.655-2.707.055-5.435-.074-8.147-.024-8.563.161-17.458-.193-26.098,0-1.648.037-4.906.442-6.135,1.252v16.253h0Z" fill="#f2efcf"/>
        <path d="M276.888,102.837h-17.973l-8.203-18.634-36.903.225-8.074,18.41h-17.973l36.179-83.739c.362-.302.764-.609,1.219-.751,1.789-.559,13.969-.463,15.439.369.546.309.873.765,1.161,1.302,9.27,21.815,19.112,43.411,28.322,65.249,2.431,5.765,5.107,11.577,6.808,17.57h0ZM243.896,67.869c-3.196-8.801-7.086-17.35-10.737-25.953l-1.322-1.14-11.084,27.093h23.143Z" fill="#f2efcf"/>
        <path d="M313.72,17.782c9.865-.88,21.435,1.598,29.974,6.663,1.186.704,4.483,2.533,4.611,3.795.158,1.574-7.946,12.798-9.119,12.896-7.691-4.756-17.714-9.363-26.966-7.124-5.374,1.3-8.289,7.269-4.807,11.946,5.259,7.064,29.437,6.623,39.157,17.474,6.95,7.759,6.727,21.458.446,29.514-12.769,16.376-41.227,12.435-56.791,2.216-1.87-1.228-6.225-3.335-4.5-5.896,1.86-1.314,7.801-10.129,9.24-10.494,1.172-.297,7.678,4.703,9.478,5.617,6.948,3.526,21.126,6.949,27.126.494,3.409-3.667,2.42-8.54-1.531-11.319-11.019-7.751-36.241-5.058-41.189-22.337-5.233-18.274,7.032-31.855,24.871-33.446h0Z" fill="#f2efcf"/>
        <path d="M473.751,17.778c6.861-.67,15.136.488,21.663,2.67,2.669.892,12.648,5.237,13.336,7.877.344,1.322-7.457,12.048-8.653,12.393-1.456.421-9.22-4.53-11.697-5.376-5.677-1.937-16.784-3.794-20.668,2.025-3.802,5.694.279,10.453,5.737,12.417,11.537,4.152,31.239,5.416,36.713,18.441,2.58,6.14,1.712,19.332-2.592,24.767-11.409,14.405-34.141,12.787-49.477,6.135-2.578-1.118-11.617-5.879-12.274-8.458-.432-1.695,8.322-10.313,10.113-11.889,5.312,3.254,10.217,6.992,16.422,8.546,6.828,1.711,22.126,2.475,21.699-7.891-.2-4.855-4.722-6.637-8.638-8.128-14.79-5.63-35.456-5.297-37.178-25.855-1.345-16.05,10.34-26.193,25.496-27.674h-.001Z" fill="#f2efcf"/>
        <path d="M83.268,25.165c49.907-2.296,81.642,53.976,51.516,94.866-28.027,38.042-87.416,30.609-105.176-12.92-15.678-38.425,13.013-80.076,53.66-81.946ZM78.839,31.079c-43.455,4.046-63.67,59.051-33.638,90.972,28.095,29.863,79.77,19.747,92.844-19.442,13.231-39.658-18.602-75.311-59.207-71.53h0Z" fill="#f2efcf"/>
        <path d="M246.85,117.858c.348-1.138,2.799-.857,3.469.114,2.065,2.606,13.136,23.932,14.51,24.263.668.16.853-.396,1.154-.808l13.147-22.799c.994-1.308,2.201-1.848,3.426-.528.601,9.597.034,19.23.22,28.837.026,1.332.627,2.525.544,3.908-.216,3.608-3.478,3.002-3.478,1.982v-28.319c-1.159-.237-.791.143-1.105.635-4.358,6.82-7.586,14.457-12.169,21.164-1.581,1.493-2.525.826-3.681-.656-4.347-5.577-7.413-14.656-11.954-20.521-.321-.414.012-.891-1.129-.621v28.319c0,.977-2.955.978-2.955,0v-34.968h0Z" fill="#f2efcf"/>
        <path d="M358.136,117.858c.43-1.406,3.13-1.09,3.47,1.454,1.007,7.542-.463,16.123-.556,23.663-.037,3.043,2.563,15.412-3.883,8.358-2.92-3.196-6.518-8.632-9.356-12.313-3.717-4.82-7.081-9.924-11.101-14.509-1.114-.206-.679.486-.731,1.22-.513,7.059.561,14.226.535,21.183-.003.885-.723,6.247-.992,6.44-2.311.72-2.819-.455-3.019-2.47-.72-7.252.131-16.808.542-24.141.209-3.735-1.4-13.279,4.396-6.9,6.608,7.272,12.644,18.833,19.227,25.588.472.484.649.923,1.47.746v-28.319h0Z" fill="#f2efcf"/>
        <path d="M309.74,118.25l14.384,34.515-1.209.822c-.789.104-1.343.036-1.963-.511-1.346-1.189-3.551-9.932-4.662-10.601-3.183-.4-6.386.206-9.633.275-1.628.034-5.976-1.14-7.367.47-1.371,1.586-2.767,9.563-5.016,10.26-1.036.321-2.953.221-2.422-1.412l14.141-33.662c.659-1.26,2.799-.941,3.748-.156h0ZM301.016,139.774h13.788c.108-.697-.066-1.31-.241-1.975-.876-3.317-3.925-9.878-5.451-13.272-.279-.62-.539-2.286-1.442-1.994l-6.652,17.241h0Z" fill="#f2efcf"/>
        <path d="M447.88,152.942c-1.326-1.264-2.956-8.576-4.307-10.216-.943-1.145-14.212-.202-16.679-.421-1.767.595-3.467,14.484-8.17,10.469l13.892-33.311c.668-1.417,1.884-2.255,3.467-1.771,1.821.557,4.584,10.503,5.524,12.717,3.053,7.195,6.751,14.196,9.512,21.55.47,2.004-2.228,1.949-3.24.984h0ZM428.058,139.774h13.788c-.344-2.078-5.757-16.999-6.653-17.241-.989-.267-.699.461-.952.992-.78,1.636-6.815,15.652-6.183,16.248Z" fill="#f2efcf"/>
        <path d="M394.082,124.261c.089-.996.617-4.068,1.048-4.862.271-.499.769-.888,1.168-1.284.475.34.641.642.742,1.218.289,1.659.421,5.872.51,7.863.339,7.607-.292,15.314-.023,22.924l16.747.49c-.012.408.045.83.018,1.242-.064.982-.11,1.636-1.251,1.714l-18.959-.494c.611-9.304-.821-19.628,0-28.812h0Z" fill="#f2efcf"/>
        <path d="M379.31,152.826c-.488,1.602-3.179,1.067-3.476-1.941-.455-4.62-.422-27.66,1.126-30.944.309-.655.85-1.115,1.365-1.595l.984.497v33.983Z" fill="#f2efcf"/>
      </g>
    </g>
  </g>
</svg>