<?xml version="1.0" encoding="UTF-8"?>
<svg id="b" data-name="Layer 2" xmlns="http://www.w3.org/2000/svg" width="134.977" height="25.099" viewBox="0 0 134.977 25.099">
  <g id="c" data-name="Layer 7">
    <g id="d" data-name="mKKCwz">
      <g>
        <path d="M24.887.192v24.731h-13.696c-.412-.294-.31-2.745.026-2.824l10.853-.072V.192h2.817Z" fill="#f2efcf"/>
        <polygon points="13.774 .192 13.774 2.853 2.817 2.853 2.817 24.923 0 24.923 0 .192 13.774 .192" fill="#f2efcf"/>
        <polygon points="72.784 20.853 72.784 13.497 75.288 13.497 75.288 24.923 72.94 24.923 67.462 17.566 67.462 24.923 64.957 24.923 64.957 13.497 67.227 13.497 72.784 20.853" fill="#f2efcf"/>
        <polygon points="72.784 7.549 72.784 .192 75.288 .192 75.288 11.618 72.94 11.618 67.462 4.262 67.462 11.618 64.957 11.618 64.957 .192 67.227 .192 72.784 7.549" fill="#f2efcf"/>
        <path d="M77.792,11.618V.192h5.557c2.763,0,4.788,3.174,4.788,5.713s-2.044,5.713-4.788,5.713h-5.557ZM80.297,9.584h2.739c.084,0,.764-.267.914-.338,2.219-1.066,2.219-5.614,0-6.68-.149-.072-.83-.338-.914-.338h-2.739v7.357Z" fill="#f2efcf"/>
        <path d="M124.593,24.923v-11.426h5.87c.334,0,1.642.601,2.003.814,3.291,1.943,3.35,7.606.16,9.645-.559.358-2.006.967-2.633.967h-5.4ZM127.097,22.888h2.739c.202,0,1.095-.407,1.32-.558,1.928-1.298,1.766-5.778-.57-6.609-.873-.311-2.705-.572-3.489-.111v7.278Z" fill="#f2efcf"/>
        <path d="M107.767.192c3.726.501,4.622,5.445,1.162,6.98l2.203,4.447h-2.739c-.733-.698-1.451-3.397-2.033-3.915-.383-.341-1.427-.073-1.959-.154v4.07h-2.504V.192c1.831.177,4.094-.239,5.87,0ZM104.401,5.67h2.426c1.426,0,2.244-1.927,1.259-2.98-.217-.232-.986-.62-1.259-.62h-2.426v3.6Z" fill="#f2efcf"/>
        <polygon points="16.592 16.627 16.592 .192 19.174 .192 19.409 .427 19.409 19.21 19.174 19.445 11.191 19.445 10.957 19.21 10.957 16.862 11.191 16.627 16.592 16.627" fill="#f2efcf"/>
        <path d="M43.945.076c5.052-.688,7.998,3.386,6.534,8.099-1.414,4.552-8.538,4.88-10.546.685-1.653-3.453-.104-8.224,4.013-8.784ZM44.572,2.111c-2.385.305-2.844,2.712-2.624,4.734.418,3.844,5.764,3.832,6.249.142.337-2.561-.574-5.266-3.624-4.876Z" fill="#f2efcf"/>
        <path d="M99.549.192v1.878h-6.887v2.817h5.87c.381.442.375,1.61,0,2.035h-5.87v2.817h6.887v1.878h-9.391V.192h9.391Z" fill="#f2efcf"/>
        <polygon points="92.662 13.497 92.662 18.192 97.045 18.192 97.045 13.497 99.549 13.497 99.549 24.923 97.045 24.923 97.045 20.227 92.662 20.227 92.662 24.923 90.158 24.923 90.158 13.497 92.662 13.497" fill="#f2efcf"/>
        <path d="M39.287,24.923l4.085-11.411,3.333-.025,4.165,11.436h-2.661l-.878-2.671-4.585.026-.798,2.645h-2.661ZM46.644,20.384c-.518-1.294-.82-2.732-1.403-3.997-.071-.155-.095-.367-.317-.385l-1.41,4.383h3.13Z" fill="#f2efcf"/>
        <path d="M123.028,24.923h-2.661l-.798-2.645-4.585-.026-.878,2.671h-2.661l4.165-11.436,3.274.162,4.144,11.274ZM118.802,20.384c-.518-1.294-.82-2.732-1.403-3.997-.071-.155-.095-.367-.317-.385l-1.41,4.383h3.13Z" fill="#f2efcf"/>
        <path d="M55.096.192v7.748c0,.208.576,1.077.789,1.246,1.058.837,3.171.731,3.979-.391.075-.104.397-.801.397-.855V.192h2.504v8.218c0,.091-.303.871-.381,1.028-1.6,3.205-8.001,3.182-9.441-.128-.061-.14-.352-1.001-.352-1.056V.192h2.504Z" fill="#f2efcf"/>
        <path d="M55.096,13.497v7.591c0,.183.556,1.164.746,1.333.939.835,2.752.797,3.69-.027.212-.186.729-.929.729-1.149v-7.748h2.504v8.218c0,.066-.413,1.076-.495,1.227-1.343,2.457-5.917,2.758-8.035,1.199-.59-.434-1.644-1.861-1.644-2.582v-8.061h2.504Z" fill="#f2efcf"/>
        <path d="M112.384,8.175h2.504c.074,0,.035.815.703,1.254,1.655,1.088,4.974-.089,3.683-1.763-.983-1.275-5.733-.609-6.47-3.431-1.293-4.946,8.569-5.897,9.112-1.002l-.242.223h-1.986c-.295-.098-.45-.925-.983-1.209-1.612-.859-4.548.302-3.102,1.851,1.119,1.198,5.138.573,6.203,3.031,2.392,5.521-9.456,6.559-9.421,1.047Z" fill="#f2efcf"/>
        <path d="M88.123,17.41h-2.504c-.179-1.727-1.943-2.25-3.451-1.963-3.537.674-3.408,7.706.861,7.603,1.051-.025,2.539-.882,2.59-2.04h2.504c-.525,4.593-7.225,5.371-9.787,2.039-1.949-2.535-1.539-7.17,1.284-8.898,2.968-1.816,8.298-.762,8.502,3.259Z" fill="#f2efcf"/>
        <path d="M104.401,21.166v3.757h-2.504v-11.426h6.026c.248,0,1.371.532,1.634.714,1.799,1.252,2.054,4.271.485,5.787-1.482,1.432-3.761,1.164-5.64,1.168ZM106.828,15.375c-.711-.118-1.68.086-2.426,0v3.913h2.27c.043,0,.719-.232.816-.28,1.625-.814,1.183-3.327-.659-3.633Z" fill="#f2efcf"/>
        <polygon points="13.774 11.149 13.774 13.966 8.296 13.966 8.296 24.923 5.478 24.923 5.478 11.149 13.774 11.149" fill="#f2efcf"/>
        <path d="M38.192.192v1.878h-5.635v2.817h4.931c.381.442.375,1.61,0,2.035h-4.931v4.696h-2.504V.192h8.139Z" fill="#f2efcf"/>
        <polygon points="32.557 13.497 32.557 22.81 32.792 23.045 37.879 23.045 37.879 24.923 30.053 24.923 30.053 13.497 32.557 13.497" fill="#f2efcf"/>
        <polygon points="13.774 5.67 13.774 8.488 5.713 8.488 5.478 8.253 5.478 5.67 13.774 5.67" fill="#f2efcf"/>
      </g>
    </g>
  </g>
</svg>