<?xml version="1.0" encoding="UTF-8"?>
<svg id="b" data-name="Layer 2" xmlns="http://www.w3.org/2000/svg" width="129.206" height="25.651" viewBox="0 0 129.206 25.651">
  <g id="c" data-name="Layer 7">
    <g id="d" data-name="6TSEXM.tif">
      <g>
        <path d="M9.385,6.719c.003-.049-.006-.1,0-.149.519-.065.489.064.626.425.01.025.11.027.122.078.078.32.03.466-.298.397.08-.284-.102-.564-.321-.728-.051-.038-.115-.013-.129-.022Z" fill="#f2efcf"/>
        <path d="M12.312,9.72c.151-.072.455-.327.576-.474.044-.054.004-.201.048-.253.306-.36.864-.738,1.152-1.098.044-.055.004-.194.048-.253.076-.102,1.09-.845,1.203-.897.066-.031.359-.18.381-.182.299-.04.688-.053.8.269-.068.152-.121.31-.182.463-.188.471-.164.512-.276,1.024-.013.059-.136.019-.155.159-.046.351-.046,1.534,0,1.886.018.139.14.098.154.159.103.437.051,1.259.153,1.697.011.049.239.043.147.375-.017.062-.136.02-.154.159-.034.262.062.65.004.891-.014.057-.134.047-.147.103-.035.154.032.344-.003.498-.041.18-.35.771-.474,1.077-.28.692-.74,1.347-1.05,2.101-.011.026-.11.027-.122.077-.113.463.137.533.154.655.034.263-.061.647-.004.891.014.061.136.02.154.159.054.416.054,1.845,0,2.261-.018.139-.14.098-.154.159-.054.227.051.572-.003.797-.008.034-.29.518-.298.553-.13.587-.371.967-.576,1.474-.121.299-.224.655-.499.852-.059.042-.18.006-.252.049-.112.066-.138.325-.324.275.1-1.043-.134-2.331-.006-3.343.018-.144.144-.072.162-.215.038-.304-.069-.764-.004-1.041.014-.061.136-.02.154-.159.042-.322-.074-.824-.004-1.116.155-.648.448-1.257.6-1.951.012-.053.215-.015.155-.392-.023-.143-.141-.099-.155-.16-.027-.122.026-.244-.023-.381-.014-.04-.557-.582-.596-.596-.137-.049-.26.004-.381-.023-.058-.013-.045-.131-.103-.147-.334-.092-.328.136-.375.147-.287.064-.275.008-.574.126-.126.05-.619.288-.702.35-.381.282-.9,1.157-1.099,1.602-.013.028-.109.026-.124.074v.2c.197.076.116.182.174.326.257.63.273.945.426,1.624.013.056.133.046.147.103.114.474.049,1.329.153,1.773.014.061.136.02.154.159.092.701-.103,1.635-.012,2.336.012.095.291.256.156.557l-.299-.15v.301c-.252.092-.293-.112-.325-.125-.14-.06-.286-.02-.4-.201-.044-.07-.009-.189-.05-.251-.108-.159-.534-.649-.574-.827-.112-.492-.191-.886-.303-1.397-.013-.059-.136-.019-.155-.159-.056-.432.066-1.002.012-1.436-.018-.144-.144-.072-.162-.215-.044-.346-.045-1.467,0-1.811.005-.036.127-.523.157-.657.013-.06.216-.017.147-.298-.018-.074-.986-1.015-1.072-1.079-.083-.062-.604-.283-.703-.349-.151-.1-.153-.38-.474-.276.091.243-.103.284-.124.326-.277.556-.437,1.076-.651,1.601-.028.068-.275.689-.281.732-.017.134-.02.625.008.741.014.057.134.047.147.103.115.51.204,1.381.476,1.801.31.479.687.943,1.002,1.398.353.511.72,1.103,1.099,1.603.148.195.528.298.426.623-.25.038-.049-.183-.34-.155-.148.014-.084.236-.362.155-.053-.016-.041-.136-.099-.149-.922-.2-1.865-.582-2.774-1.078-.527-.288-.835-.675-1.433-.896-.105-.039-.954-1.096-1.09-1.157-.094-.042-.256-.005-.277-.025s.017-.183-.025-.277c-.015-.034-.354-.276-.404-.344-.258-.348-1.154-2.039-1.224-2.353-.105-.477-.407-1.178-.457-1.557-.034-.263.061-.647.004-.891-.014-.061-.136-.02-.154-.159-.014-.107.133-1.987.158-2.092.167-.699.456-1.593.723-2.252.112-.277.117-.39.178-.672.013-.06.266-.195.275-.223.048-.135-.002-.256.025-.377.006-.028.222-.294.305-.442.536-.96,1.161-1.887,1.818-2.741.218-.283.797-.624,1.077-.947.044-.051.004-.203.048-.253.358-.402.905-.756,1.178-1.222l.149.039c.013.099-.07.311.111.26.076-.022.157-.367.338-.3.117.3-.1.414-.124.474-.2.484-.683,1.711-.775,2.127-.173.782-.268,1.675-.453,2.448-.043.178-.28.876-.304,1.059-.037.286-.037,1.225,0,1.511.018.139.14.098.154.159.057.244-.039.628-.004.891.018.139.142.099.155.159.033.152-.026.335.004.495.006.033.436.454.471.48.057.043.186.005.253.049.196.128.152.405.625.276-.164-.49.267-.525.426-.774.12-.188.131-.478.175-.676.013-.057.134-.045.147-.103.086-.353-.076-.755.174-1.129.011-.017.381-.116-.018-.172v-.146c.263.026.106-.285.147-.476.062-.283.391-.917.447-1.153.074-.307-.047-.849-.004-1.192.018-.143.144-.072.162-.215.087-.694-.077-1.576-.006-2.293l.274.325c.356.682.368,1.508.651,2.201.413,1.012.822,2.16,1.451,3.124.364.558.64,1.149,1.168,1.634.082.075.036.236.209.096.017-.014.266-.258.275-.275.045-.082-.004-.218.037-.267.305-.362,1.026-.794,1.388-1.086.349-.282.365-.424.496-.782.011-.031.263-.164.275-.224.024-.114-.023-.245,0-.347.019-.081.152-.041.152-.049v-1.951c0-.011-.23.057-.15-.15h.298c-.101.239.143.319.151.351.1.445.225.973.157,1.492-.018.139-.142.099-.155.159-.075.343-.023.458-.177.824-.122.291-.446.735-.748.976-.055.044-.194.004-.253.048-.26.195-.345.604-.499.7-.392.245-.376.235-.729.571-.153.146-.469.141-.371.505-.346.169-.515-.594-.606-.159l-.143.007c.01-.164-.208-.229-.277-.322-.043-.058-.005-.189-.049-.252-.249-.362-.501-.609-.733-1.011-.444-.77-.851-1.333-1.045-2.187-.006-.027-.29-.378-.296-.405-.043-.166.111-.456-.152-.397.135.302-.144.462-.156.557-.039.302.07.766.004,1.041-.089.371-.372,1.033-.448,1.378-.191.87-.54,1.472-.927,2.326-.016.036-.222.026-.102.306.012.029.407.408.451.444.097.079.755.419.853.498.081.065.792.973.924.727-.103-.329.284-.429.426-.625.054-.074.002-.277.2-.401.666-.416,1.085-.754,1.874-.927.057-.013.045-.134.103-.148.106-.026.766-.025.871,0,.05.012.051.112.077.122.439.181,1.032.485,1.18.959.03.096-.069.143.146.117-.106-.321.186-.331.276-.474.119-.19.426-.81.5-1.002.122-.318.511-1.002.573-1.276.035-.154-.032-.344.003-.498.013-.056.133-.046.147-.103.043-.178.036-1.348.008-1.567-.007-.056-.294-.716-.304-.759-.062-.261.058-.684-.003-.947-.014-.061-.136-.02-.154-.159-.032-.247-.032-1.039,0-1.286.018-.139.14-.098.154-.159.045-.192-.041-.46,0-.65.017-.079.223.003.151-.198l-.28.023c-.451.602-1.173,1.093-1.646,1.651-.134.158-.514.837-.649,1.003-.035.043-.415.441-.445.452-.111.04-.213,0-.302.024-.07.018-.025.135-.162.154-.217.029-.919.029-1.136,0-.128-.017-.087-.113-.169-.149-.054-.024-.153.009-.215-.031-.258-.164-.389-.58-.499-.852-.346-.856-.586-2.03-1.199-2.852-.288-.386-.535-.348-.752-.899-.01-.025-.108-.026-.122-.078-.104-.396.136-.376.153-.505.015-.118.018-.485-.008-.59-.012-.05-.112-.051-.122-.077-.309-.753-.643-1.377-.951-2.127-.1-.243-.554-1.13-.581-1.332-.031-.239.034-.543.006-.793.171.021.391-.036.549.002.057.014.045.135.102.148.881.193,1.462.548,2.326.925l.528.573c.236-.023.581.051.794.001.061-.014.02-.136.159-.154.365-.048,1.596-.047,1.961,0,.128.017.127.23.598.16.146-.022.717-.746.883-.88.055-.044.197-.004.253-.048.336-.265,1.029-.925,1.427-1.024.19-.047.471.045.649-.001.076-.02.033-.356.258-.01.011.017.091.005.091.009v2.551c0,.008-.131-.031-.151.049.063.52-.251.883-.442,1.289-.118.251-.395.785-.63.964-.057.043-.19.005-.253.049-.497.346-.719.59-1.323.727-.058.013-.045.136-.102.148-.2.044-.485.055-.676.175-.201.126-.277.369-.349.552-.01.025-.111.028-.123.077-.036.154.031.343-.003.497-.141.629-.307,1.304-.45,1.95-.01.044-.102.006-.149.352-.211.101-.383.098-.624.151-.058.013-.139.253-.6.147-.023-.005-.323-.414-.35,0,.143-.009.123.139.257.157.168.022.895.026,1.037-.008.048-.012.053-.098.086-.118.061-.037.16-.02.18-.039.047-.046.002-.208.014-.29ZM9.836,7.469c.009.358.374.803.449,1.102.042.166-.112.458.151.399.019-.158-.025-.341-.006-.492.019-.148.226-.26.162-.75-.018-.139-.141-.099-.154-.158-.034-.155.032-.344-.003-.498-.012-.055-.135-.045-.148-.102-.024-.107.02-.234-.003-.345-.009-.043-.573-.594-.621-.63-.057-.043-.187-.005-.253-.049-.148-.098-.152-.373-.473-.278l-.002-.298.696.003c.122.271.345.239.48.323.05.031.611.869.624.927.025.111-.022.237.003.347.013.057.134.045.148.103.131.543-.129,1.607.003,2.147.009.036.251.111.149.351.339.066.687-.025.876-.322.061-.096-.032-.258.172-.33l-.003-1.407.222-.046c.053-.052-.027-.541.011-.693.012-.05.112-.051.122-.077.321-.78.416-.884,1.201-1.201.215-.087.479-.178.711-.282.642-.289,1.283-.836,1.538-1.443.069-.165.307-.706.324-.777.046-.19-.047-.474,0-.65.022-.08.151-.041.151-.049v-1.2c-.296-.118-.426.106-.475.125-.399.153-.227.149-.449.301-.064.044-.194.005-.253.049-.252.188-1.312,1.455-1.483,1.481-.471.07-.47-.144-.598-.16-.797-.104-2.352-.013-3.071.154-.065.015-.043.136-.054.144-.14.101-.138-.072-.177-.109-.739-.7-1.342-1.175-2.317-1.385-.038-.008-.103-.257-.351-.149-.053.205.092.104.147.208.019.035-.008.134.028.218.404.947.927,1.914,1.351,2.925.011.026.108.026.122.077.103.392-.135.404-.145.449-.148.623.183.553.424.873.145.193-.076.155.324.427-.03.479.361.3.302.749h.148ZM5.033,7.47l-.576.473c.057.399-.697.694-.824.902-.956,1.57-2.026,2.833-2.427,4.651-.047.212-.382.88-.448,1.153-.062.261.058.684-.003.947-.014.061-.136.02-.154.159-.029.221-.029.914,0,1.136.018.139.14.098.154.159.054.227-.051.572.003.797.043.176.411.836.448,1.003.21.954.719,1.521,1.327,2.299.044.057.004.199.048.253.509.619,1.214.979,1.828,1.399.819.559,1.355.88,2.216,1.329.105.055.004.2.208.147.106-.317-.178-.328-.275-.474-.462-.697-1.056-1.682-1.35-2.401-.133-.326-.109-.428-.176-.75-.012-.059-.137-.019-.155-.158-.033-.256-.042-1.737.007-1.942.014-.057.135-.045.148-.103.143-.654.461-1.241.744-1.812.042-.084-.059-.255.146-.246l.009-.139c-.116.006-.128-.092-.213-.144-.071-.043-.446-.141-.512-.182-.045-.028-.721-.705-.75-.749-.011-.017-.168-.31-.172-.329-.025-.11.021-.236-.003-.347-.013-.061-.137-.019-.155-.159-.068-.519-.068-2.342,0-2.861.018-.139.14-.098.154-.159.054-.227-.05-.57.003-.797.203-.862.412-1.696.6-2.551.006-.028.288-.196.149-.501ZM13.962,18.949c-.276-.06-.108.364-.151.548-.15.64-.202.96-.293,1.67-.018.144-.144.072-.162.215-.074.586,0,.836-.142,1.445-.046.196.027.486-.001.698l.274-.325c.415-.799.354-1.579.47-2.493.018-.144.144-.072.162-.215.022-.173.022-.663,0-.835-.018-.139-.14-.098-.154-.159-.038-.161.021-.377-.002-.548ZM9.385,19.549c-.276-.06-.108.364-.151.548-.014.061-.136.02-.154.159-.064.495.139.653.162.825.082.626-.013.934.142,1.595.074.317.031.773.153,1.097l.299.351c-.054-.527.073-1.184.006-1.693-.018-.139-.14-.098-.154-.159-.065-.278.044-.738.004-1.041-.018-.139-.14-.098-.154-.159-.071-.302-.066-.615-.15-.975-.038-.16.021-.377-.002-.548Z" fill="#f2efcf"/>
        <path d="M72.409.492l3.001,10.43c.263.057.11-.233.151-.399.137-.549.478-1.206.598-1.753.223-1.014.529-1.885.752-2.899.105-.476.334-.971.45-1.501.24-1.092.807-2.245,1.048-3.329.024-.108-.021-.235.003-.345.003-.012.135-.204.148-.204h5.027v.6h-1.951c-.006,0,.013.084-.027.123s-.123.02-.123.027v13.655h2.101v.6h-6.828v-.6h2.326V1.242l-.298.352.003.508-.222.045c.121.31-.15.469-.156.497-.064.285-.087.651-.152.948-.24,1.091-.811,2.246-1.048,3.328-.223,1.014-.529,1.885-.752,2.899-.202.922-.692,1.941-.898,2.878-.18.819-.413,1.608-.602,2.448-.007.033-.252.111-.15.351-.137-.008-.286.019-.42.006-.453-.041-.271-.44-.331-.705-.127-.562-.452-1.275-.6-1.95-.234-1.064-.656-2.113-.9-3.226-.255-1.162-.895-2.304-1.043-3.546-.042-.355-.356-1.093-.458-1.556-.128-.584-.469-1.259-.598-1.828-.025-.111.032-.354-.009-.395l-.209-.009c-.048-.046.021-.411-.01-.544-.013-.057-.133-.046-.147-.103-.042-.167.112-.457-.152-.399v13.655h2.176c.018,0,.142.241.151.262-.194.063-.168.143-.151.338h-4.877v-.6h2.101V1.092h-2.101V.492h5.177Z" fill="#f2efcf"/>
        <path d="M42.378.065c.383.176.394.05.719.128.033.008.458.245.526.273,1.446.589,3.011,2.038,3.658,3.415.328.698.72,1.418.892,2.139.046.19-.042.455.003.647.014.061.136.02.154.159.053.404.053,1.782,0,2.186-.018.139-.14.098-.154.159-.054.227.051.572-.003.797-.014.057-.135.045-.147.103-.114.518-.241.867-.426,1.324-.186.46-.436.771-.619,1.163-.229.491-.89,1.29-1.361,1.684-.213.178-1.762,1.217-1.924,1.254-.301.069-.656.089-.947.153-.059.013-.019.136-.159.155-.378.049-1.658.049-2.036,0-.139-.018-.099-.142-.159-.155-.344-.075-.459-.027-.825-.177-.299-.122-.913-.386-1.201-.599-.141-.104-1.374-1.12-1.424-1.201-.662-1.083-1.065-1.685-1.551-2.877-.383-.939-.287-1.119-.419-2.168-.018-.144-.144-.072-.162-.215-.062-.492.142-.602.162-.751.045-.342-.056-.794-.012-1.136.018-.139.14-.098.154-.159.045-.192-.042-.457.003-.647.131-.545.625-1.421.892-1.989.243-.517.628-.916.932-1.414.143-.234,2.294-1.776,2.503-1.824.551-.126,2.378-.681,2.929-.428ZM42.378.816c-.496-.229-1.983.173-2.477.279-.061.013-.164.231-.228.273-.067.043-.196.006-.253.049-.333.251-.749.872-.917,1.24-.184.405-.076.582-.159.935-.014.061-.136.02-.154.159-.037.283.065.705.004.966-.014.061-.136.02-.154.159-.144,1.104-.144,5.134,0,6.237.018.139.14.098.154.159.074.317.061.663.15,1.05.076.334-.009.489.159.861.155.342.396.583.568.838.042.062.006.18.05.251.123.197.315.142.4.2.167.113.634.525.827.573.261.065.652-.147.736.153.172.038.076-.128.16-.151.386-.105.411.139.45.15.273.076.246-.135.303-.148.192-.044.457.043.646-.004.05-.012.692-.37.828-.422.71-.273.931-.839,1.201-1.502.124-.304.062-.281.126-.574.013-.059.136-.019.155-.159.13-.986.042-2.146.3-3.076-.07-1.969.103-4.257-.307-6.069-.008-.035-.29-.518-.298-.552-.138-.61-.053-.228-.277-.573-.043-.067-.006-.195-.049-.253-.202-.269-.784-.629-1.09-.767-.307-.138-.564-.148-.857-.284Z" fill="#f2efcf"/>
        <path d="M92.797.065c.383.176.394.05.719.128.043.01.613.249.738.306.461.208.685.435,1.17.615.025.009.306.391.34.406.094.042.256.005.277.025s-.017.183.025.277c.053.119.862.754,1.004.945.433.58.815,1.423,1.1,2.128.119.294.356.826.423,1.126,1.068,4.747-2.237,10.409-7.619,9.784-.116-.067-.572-.297-.609-.305-1.098-.242-1.072-.358-1.923-1.027-.056-.044-.198-.004-.253-.048-.459-.37-.654-.909-1.076-1.274-.072-.063-.189-.04-.209-.064-.041-.049.008-.185-.037-.267-.023-.043-.246-.166-.255-.191-.19-.528-.18-.417-.448-.83-.203-.313-.681-1.894-.773-2.279-.07-.294.073-.826,0-1.1-.023-.085-.192.011-.152-.161l.147-.041.005-.109-.153-.084c-.076-.268.138-.252.15-.306.066-.277-.044-.739-.004-1.042.018-.139.14-.098.154-.159.136-.582.081-.971.327-1.575.207-.507.561-1.346.901-1.875.078-.122.488-.32.626-.499.044-.057.004-.2.048-.253.323-.389,2.066-1.74,2.429-1.823.56-.128,2.378-.681,2.929-.428ZM92.797.816c-.62-.286-2.404.25-2.958.6-.358.226-.647.776-.799,1.152-.028.069-.266.493-.273.526-.035.154.032.344-.003.498-.013.056-.133.046-.147.103-.078.326.05.904.004,1.266-.018.144-.144.071-.162.215-.129,1.025-.133,4.619,0,5.637.018.139.14.098.154.159.07.299-.068.801.003,1.097.014.057.134.047.147.103.068.289.081.705.153,1.022.008.036.289.577.323.629.041.064.388.308.404.344.042.094.004.256.025.277.02.02.182-.017.276.025.036.016.14.22.195.254.061.038.594.313.629.322.326.081.937-.08,1.249.001.077.02.017.147.087.152.172.038.076-.129.161-.152.208-.056.575.055.799-.001.027-.007.378-.29.405-.296.196-.045.488-.057.675-.176.036-.023.568-.558.599-.6.168-.222.265-.559.325-.825.006-.028.278-.188.157-.497l.222-.045c.024-.307-.048-.682-.011-.977.018-.144.144-.071.162-.215.049-.389-.061-.897-.012-1.286.018-.144.144-.071.162-.215.109-.865.112-3.877,0-4.737-.018-.139-.14-.098-.154-.159-.069-.296.046-.793.004-1.116-.018-.139-.14-.099-.154-.159-.035-.151.016-.348.003-.508l-.222-.045c.121-.31-.15-.469-.157-.497-.06-.268-.157-.601-.325-.825-.202-.269-.784-.629-1.09-.767-.307-.138-.564-.148-.857-.284Z" fill="#f2efcf"/>
        <path d="M56.954.492v.6h-2.101c-.094.251.111.293.125.325.18.424.364.558.601.9.285.41.529.893.799,1.303.578.876,1.269,1.697,1.802,2.625.29.505.379-.153.448-.251.065-.092.332-.253.402-.347.825-1.115,1.602-2.365,2.449-3.479.06-.079.373-.289.404-.345.045-.082-.005-.217.037-.267.05-.059.509-.101.361-.462h-2.476c-.085-.311.236-.289.15-.6h5.327v.6h-2.101c.013.121-.089.13-.142.214-.192.304-.674,1.033-.938,1.258-.316.27-.428.593-.669.905-.05.065-.395.318-.404.342-.104.281-.317.699-.496.933-.513.669-1.032,1.251-1.501,1.95-.088.132-.302.12-.283.36.011.135.354.331.433.438.043.059.005.19.049.253.754,1.077,1.602,2.12,2.352,3.199.114.164.083.316.355.548.291.249.318.417.522.75.491.803,1.092,1.471,1.599,2.228.033.05.075.318.174.426h1.801v.6h-7.278v-.6h2.401l-3.939-5.778-.388.325c-.608.95-1.339,1.878-2.002,2.8-.179.25-.764.866-.851,1.024-.045.082.004.218-.037.267-.02.023-.366.174-.487.335-.044.059-.004.196-.048.253-.225.292-.227.16-.429.566-.051.103-.201.003-.147.208h2.626c.033,0,.247.475.15.6h-5.777v-.6h2.101c.06-.253.424-.434.576-.624.306-.382.65-1.053.949-1.453.128-.171.469-.308.489-.331.04-.047-.011-.228.034-.35.009-.025.353-.276.404-.342.632-.816,1.196-1.863,1.849-2.654.113-.137.407-.389.574-.475l.003-.111c-.227-.049-.11-.217-.175-.315-.493-.729-1.094-1.426-1.602-2.148-.252-.357-.559-.988-.799-1.303-.122-.161-.467-.312-.487-.336-.041-.05.006-.175-.021-.225-.533-.985-1.313-1.808-1.92-2.713-.033-.05-.075-.318-.174-.426h-1.801V.492h7.128Z" fill="#f2efcf"/>
        <path d="M105.722.492c.006.002-.006.087.032.118.045.037.231.185.244.206.048.078.151.478.198.553.049.078.353.269.402.347.557.883,1.001,1.844,1.549,2.729.642,1.036,1.403,2.028,2.052,3.049.384.603.83,1.197,1.201,1.8.048.078.151.477.2.551.142.217.417.089.372.454l.428.322V1.242c0-.006-.084.013-.123-.027s-.02-.123-.027-.123h-2.326V.492h5.177v.6h-2.101v14.706h-.6c.079-.262-.092-.263-.144-.363-.164-.317-.245-.507-.5-.717-.224-.185-.133-.288-.207-.396-1.06-1.561-1.997-3.147-3.001-4.727-1.356-2.133-2.706-4.217-4.052-6.377-.139-.224-.586-.733-.703-.946-.045-.082.004-.217-.037-.266-.017-.02-.131-.006-.207-.066-.211-.167-.129-.522-.454-.546v13.505h2.326v.6h-5.177v-.6h2.101V1.092h-2.251V.492h5.627Z" fill="#f2efcf"/>
        <path d="M128.906.492l.301,5.177h-.601s-.007-.296-.007-.296l-.208-.009c-.049-.048.02-.41-.011-.544-.072-.303-.301-.9-.423-1.201-.105-.26-.212-.523-.3-.751-.119-.31-.636-1.102-.949-1.302-.187-.119-.477-.132-.676-.175-.061-.013-.019-.137-.159-.155-.216-.029-.555.058-.744.007-.081-.022-.041-.151-.049-.151h-1.05v13.805h2.401c.032,0,.248.474.15.6h-7.878c-.097-.126.118-.6.15-.6h2.476V1.092h-1.05c-.008,0,.031.13-.049.151-.258.069-.749-.067-1.024.001-.137.034-.428.356-.527.424-.064.044-.194.005-.253.049-.04.03-.577.564-.6.599-.206.326-.398.928-.475,1.276-.013.057-.136.047-.148.102-.118.539-.179,1.086-.303,1.624-.007.032-.252.112-.149.351h-.6s.301-5.176.301-5.176h12.455Z" fill="#f2efcf"/>
        <path d="M33.62.492l.021,2.835c.339.094-.043.119-.026.356.01.146.143.07.162.217.044.355-.044.801-.005,1.168h-.601c.137-.308-.141-.474-.148-.502-.118-.501-.073-.75-.276-1.248-.244-.596-.436-1.33-1.099-1.752-.187-.119-.477-.132-.676-.175-.061-.013-.019-.137-.159-.155-.483-.063-1.146.174-1.501-.15-.892.1-1.997-.112-2.86,0-.015.002-.259.14-.259.155v6.377h1.651c.008,0-.031-.131.049-.151.271.104,1.061-.246,1.201-.474.043-.07.008-.189.05-.251.044-.065.26-.168.273-.229.024-.11-.021-.237.004-.344.013-.057.134-.046.147-.103.046-.19-.042-.456.003-.647.014-.061.136-.02.154-.159.016-.125-.036-.614-.006-.643h.601v6.603h-.601c-.033-.033.032-.558-.001-.699-.014-.057-.133-.046-.147-.103-.046-.19.042-.457-.003-.647-.014-.056-.134-.046-.147-.103-.024-.107.02-.234-.004-.344-.013-.06-.229-.163-.273-.229-.042-.062-.007-.18-.05-.251-.012-.02-.348-.293-.371-.3-.147-.048-.258,0-.377-.026-.062-.013-.019-.137-.159-.155-.426-.056-1.106.094-1.492.004-.06-.014-.044-.18-.163-.155-.035-.024-.338.138-.338.157v6.527h2.551v.6h-7.353v-.6h2.251V1.092h-2.251V.492h12.23Z" fill="#f2efcf"/>
        <path d="M89.966,18.348c.007.004-.029.131.049.151.43-.09,1.339.397,1.578.772.036.056.015.164.049.252.01.026.112.026.123.077.025.111-.022.237.003.347.013.057.134.045.148.103.026.106.026.766,0,.873-.014.057-.135.045-.148.103-.024.11.023.236-.003.347-.012.051-.113.051-.123.077-.183.465-.428.675-.863.882-.094.045-.106.229-.363.144l-.003.191,1.655,2.36h-1.05c-.015,0,.084.175-.188.156-.239-.017-.24-.367-.287-.432-.068-.094-.332-.252-.402-.347-.2-.271-.448-.882-.649-1.153-.101-.136-.414-.271-.426-.474h-1.501v2.251c-.356.033-.683-.118-.937.157-.034.024-.338-.138-.338-.157v-6.527c0-.006.084.013.123-.027s.02-.123.027-.123c.456,0,3.379-.096,3.526,0ZM90.116,19.549h-2.551c-.085.204.14.113.151.188.027.175-.1.084-.131.128-.046.066-.049,1.422-.026,1.601.002.015.14.259.155.259h1.951c.008,0-.032-.133.049-.152.104-.024.236.026.349,0,.05-.011.051-.113.077-.123.087-.033.193-.014.251-.051.253-.161.131-.322.176-.523.01-.044.255-.088.146-.524-.013-.05-.112-.052-.122-.077-.034-.088-.015-.198-.05-.252-.08-.124-.427-.277-.426-.473Z" fill="#f2efcf"/>
        <path d="M101.746,18.348c.006.002-.006.087.032.118.055.045.216.168.244.206.479.644.947,1.357,1.495,1.959.164.18.183.303.277.472.162.293,1.017.901,1.052,1.348l.426.324v-4.277c0-.006.084.013.123-.027s.02-.123.027-.123h1.05v6.678h-1.05c-.006,0,.007-.086-.032-.118-.055-.045-.216-.168-.244-.206-.169-.228-.478-.781-.649-1.003-.701-.912-1.664-1.666-2.176-2.701l-.426-.399v4.427h-1.05v.149s-.15,0-.15,0v-6.828h1.05Z" fill="#f2efcf"/>
        <path d="M119.152,18.348c.007.004-.029.131.049.151.359-.167,1.695.608,1.805.917.049.137-.004.26.023.381.013.057.134.046.147.103.029.121.029,1.202,0,1.321-.012.05-.112.051-.122.077-.111.27-.24.69-.499.852-.135.085-.45.137-.597.177-.048.013-.111.25-.356.148-.132.319.34.461.428.621.045.082-.005.217.037.267.013.015.244.041.335.187.265.426.562.83.779,1.267.051.103.201.003.147.208h-1.426c-.006,0,.007-.086-.032-.118-.055-.045-.216-.169-.244-.206-.394-.531-.737-1.164-1.082-1.713-.053-.085-.156-.093-.142-.214h-1.501v2.251c0,.019-.274.169-.336.151-.029-.008-.075-.265-.516-.152-.076.019-.033.356-.257.01-.011-.017-.091-.005-.091-.009v-6.678c.463.089,3.272-.117,3.451,0ZM119.302,19.549c-.131-.088-2.064.066-2.401,0v2.176h2.101c.008,0-.032-.133.049-.152.114-.027.241.031.383-.02.02-.007.283-.284.294-.301.039-.061.007-.161.031-.215.036-.082.133-.042.15-.169.016-.125.019-.556-.008-.665-.012-.05-.112-.052-.122-.078-.035-.087-.014-.193-.051-.25-.134-.206-.341-.144-.406-.195-.04-.031-.013-.126-.019-.13Z" fill="#f2efcf"/>
        <path d="M113.6,18.348c.017.007.149.256.156.329.014.153.021.53-.008.667-.003.012-.135.204-.147.204h-3.676v1.576h3.226c.018,0,.149.259.156.329.014.153.021.53-.008.667-.003.012-.135.204-.147.204h-3.226v1.651h3.826v1.05h-4.802c-.008,0,.012.136-.037.152l-.188-.002v-6.828h4.877Z" fill="#f2efcf"/>
        <path d="M39.997,18.348c.007.004-.029.131.049.151.493-.067,1.27.364,1.578.773.043.057.005.186.049.253.042.064.26.168.272.229.049.239-.048.569.004.795.017.072.208.018.15.238-.008.029-.137.028-.15.088-.044.192.043.457-.004.647-.012.05-.112.052-.122.077-.035.088-.014.196-.049.252-.029.045-.705.721-.75.75-.194.124-.482.127-.678.172-.08.019-.041.152-.049.152h-2.101c-.006,0,.013.084-.027.123s-.123.02-.123.027v1.951c-.264.044-.694-.062-.927-.001-.076.02-.033.357-.258.01-.011-.017-.091-.005-.091-.009v-6.678c.437.085,3.055-.112,3.226,0ZM40.147,19.549c-.12-.08-1.797.061-2.101,0v2.326h1.951c.007,0-.022-.099.018-.13.059-.046.192.001.259-.043.041-.027.473-.501.478-.537l-.007-.963c-.202-.071-.111-.232-.174-.328-.134-.206-.341-.144-.406-.195-.04-.031-.013-.126-.019-.13Z" fill="#f2efcf"/>
        <path d="M83.439,25.026c.108-.236-.142-.319-.149-.352-.062-.276-.062-.397-.177-.674-.026-.061-.24-.17-.124-.475l-3.26-.003c.035.219-.186.334-.191.355-.107.476-.178.81-.569,1.183-.028.027-.032.076-.034.115l-.141-.009-.044-.141h-.151s-.075.153-.075.153l-.109-.006c.041-.296-.507-.072-.603-.146-.053-.204.092-.104.147-.208.167-.316.261-.813.46-1.229.045-.095.21-.102.153-.356l.206-.012c-.096-.306.11-.411.134-.47.392-.963.841-1.893,1.2-2.776.205-.503.361-.761.477-1.274.007-.033.252-.112.149-.351l1.158-.004,2.893,6.681h-1.351ZM80.287,22.325h2.101c.052-.205-.092-.104-.147-.208-.149-.282-.511-1.256-.605-1.613-.01-.037-.283-.197-.148-.505h-.262c-.082.014-.005.174-.04.242-.286.555-.493,1.126-.773,1.76-.015.034-.217.071-.125.324Z" fill="#f2efcf"/>
        <path d="M52.827,25.026c-.093-.253.11-.291.125-.324.246-.56.372-1.018.633-1.563.045-.095.21-.102.153-.356l.206-.012c-.096-.307.109-.409.134-.47.255-.622.51-1.193.75-1.726.3-.668.475-1.237.802-1.9.021-.042.212-.081.125-.325l1.029.023c.163.099.137.289.178.362.476.85.723,1.521,1.068,2.365.458,1.118,1.074,2.655,1.628,3.717.054.104.2.004.147.208-.125.017-.288-.031-.401,0-.085.023.012.19-.16.152-.088-.297-.518-.097-.788-.152.087-.245-.103-.282-.125-.325-.116-.23-.219-.537-.3-.75-.064-.167-.034-.298-.231-.422l-2.689.003-.255-.155c.024.159-.284.282-.299.353-.024.11.021.236-.004.343-.006.027-.291.378-.297.405-.025.109.021.235-.004.344-.003.012-.135.204-.148.204h-1.275ZM56.353,19.848l-.274.326c-.218.629-.398,1.214-.651,1.826-.025.06-.242.174-.124.474.196.079.12-.133.198-.151.139-.031,1.52-.022,1.586.022.022.015.015.087.021.123l.293-.146c.071-.177-.106-.132-.125-.168-.348-.674-.497-1.379-.799-1.98-.021-.041-.215-.079-.125-.326Z" fill="#f2efcf"/>
        <path d="M28.293,25.026c-.127-.135.512-.956.461-1.193l.203-.016c.091-.243.108-.448.163-.69.057-.253.754-1.73.924-2.128.159-.371.956-1.815,1.023-2.103.025-.108-.022-.234.005-.343.074-.305.912-.211,1.177-.181.163.099.137.289.178.362.608,1.086,1.045,2.255,1.518,3.415.326.799.779,1.894,1.198,2.705.019.036.196-.009.125.168l-.26.153c-.035-.326-1.005-.056-1.088-.152.087-.245-.103-.282-.125-.325-.116-.23-.219-.537-.3-.75-.06-.158-.026-.268-.196-.401l-3.13-.023c-.01.075.022.175-.004.241-.034.088-.436.669-.446.711-.025.108.021.235-.004.344-.003.012-.135.204-.148.204h-1.275ZM30.919,22.325h1.951c.052-.205-.093-.104-.147-.209-.329-.63-.478-1.342-.779-1.942-.021-.041-.215-.079-.125-.326-.218-.027-.115.025-.145.119-.21.656-.603,1.295-.756,2.007-.006.028-.29.205-.149.501.21.076.136-.141.15-.15Z" fill="#f2efcf"/>
        <path d="M75.261,18.348c.007.004-.029.131.049.151.497-.099,1.452.494,1.728.922.049.076.022.267.18.384v1.661c-.158.117-.131.309-.18.384-.029.045-.705.721-.75.75-.194.124-.482.127-.678.172-.08.019-.041.152-.049.152h-2.101c-.006,0,.013.084-.027.123s-.123.02-.123.027v1.951c-.245.041-.636-.057-.852-.001-.076.02-.033.357-.258.01-.011-.017-.091-.005-.091-.009v-6.527c0-.006.084.013.123-.027s.02-.123.027-.123c.393,0,2.876-.082,3.001,0ZM75.411,19.549c-.12-.081-1.797.061-2.101,0v2.326h1.951c.007,0-.022-.099.018-.13.059-.046.192.001.259-.043.041-.027.473-.501.478-.537-.052-.54.18-1.105-.328-1.442-.067-.045-.2.002-.259-.043-.04-.031-.013-.126-.018-.13Z" fill="#f2efcf"/>
        <path d="M125.66,18.222c.383.176.394.05.719.128.057.014.045.135.103.147.194.043.493.056.676.175.146.096.153.378.474.276.092.252-.112.293-.125.324-.037.087-.013.195-.05.252-.095.146-.379.153-.276.474-.318.108-.331-.188-.474-.276-.152-.094-.547-.129-.629-.322h-1.393s-.352.352-.352.352c.023.236-.051.578,0,.792.011.048.096.052.118.086.036.057.018.158.041.178.052.044.18-.007.228.019.076.041.062.134.111.145.231.052.424.145.449.15.383.084.68.135,1.024.276.638.26,1.085.375,1.351,1.051.01.026.112.026.123.077.025.111-.022.236.003.347.012.053.214.015.155.392-.023.143-.142.101-.154.16-.061.281-.002.561-.176.826-.036.055-.238.16-.254.195-.042.094-.005.257-.025.276-.027.026-.171-.021-.238.006-.094.037-.663.432-.712.445-.133.033-1.561.033-1.696,0-.057-.014-.047-.135-.103-.147-.154-.035-.343.033-.497-.003-.036-.008-.577-.289-.629-.322-.187-.119-.296-.542-.624-.426-.109-.426.556-.47.452-.899.47-.133.428.146.623.274.043.028.593.315.629.323.479.109.927.199,1.491.158l.532-.331c.018-.307.269-.308.173-.673-.014-.054-.116-.039-.145-.11-.027-.066.021-.213-.005-.239-.026-.026-.171.021-.238-.006-.19-.075-.658-.4-.86-.446-.48-.109-.772-.099-1.236-.309-.117-.053-.756-.417-.788-.468-.044-.07-.009-.189-.05-.251-.044-.065-.26-.166-.272-.229-.044-.217.049-.534-.002-.722-.016-.06-.262-.04-.148-.196.006-.008.129.02.148-.051.046-.171-.038-.448.002-.647.012-.062.229-.164.272-.229.042-.062.006-.18.05-.251.021-.033.519-.399.598-.451.195-.127,1.36-.414,1.607-.3Z" fill="#f2efcf"/>
        <path d="M24.671,18.222c.383.176.394.05.719.128.057.014.045.135.103.147.616.135.42.114.873.427.063.044.194.005.252.049.016.012.265.258.277.273.034.042.104.059.045.151-.02.031-.543.397-.576.472-.04.091-.025.185-.022.28-.32.104-.323-.176-.474-.276-.065-.043-.189-.006-.252-.049-.051-.035-.172-.246-.192-.253-.138-.049-.259.003-.381-.023-.062-.014-.019-.137-.159-.155-.176-.023-1.047-.027-1.19.008-.05.012-.051.112-.077.122-.38.156-.919.435-1.152.799-.149.233-.124.515-.175.751-.012.054-.134.046-.147.102-.033.137-.029.878-.008,1.042.018.14.142.097.155.159.024.111-.023.237.003.347.012.051.113.05.123.077.128.316.217.637.499.852.057.043.188.005.253.049.065.044.168.26.228.273.111.024.237-.02.344.004.057.013.046.134.103.147.125.03.744.027.891.008.14-.018.097-.142.159-.155.111-.024.236.022.347-.003.02-.004.312-.162.329-.172.079-.05.266-.35.346-.403.099-.066.265.052.315-.175l.111.003c.008.198.344.345.428.471.041.062.004.171.027.219.047.094.201.021.145.207-.056-.001-.103.017-.141.058-.163.179-.976.811-1.11.842-.111.025-.237-.022-.347.003-.057.013-.045.134-.103.148-.142.034-1.706.034-1.848,0-.057-.014-.045-.135-.103-.148-.11-.024-.236.022-.347-.003-.125-.028-.433-.36-.526-.424-.064-.044-.194-.005-.253-.049-.213-.159-1.042-1.245-1.072-1.379-.025-.11.021-.236-.003-.347-.013-.061-.137-.019-.155-.159-.208-1.585.175-2.832,1.38-3.845.225.007.46-.235.64-.317.233-.106,1.473-.395,1.717-.284Z" fill="#f2efcf"/>
        <polygon points="98.895 18.348 98.895 19.549 96.794 19.549 96.794 25.026 95.593 25.026 95.593 19.549 93.417 19.549 93.417 18.348 98.895 18.348" fill="#f2efcf"/>
        <path d="M52.377,18.348c.01.004-.01.078.009.091.388.252-.303.244.137.362l.005.11c-.279.074-.113.409-.151.638h-2.101v5.477c-.341.024-.62-.106-.862.157-.035.024-.338-.138-.338-.157v-5.477h-1.951c-.006,0,.013-.084-.027-.123s-.123-.02-.123-.027v-1.05h5.402Z" fill="#f2efcf"/>
        <path d="M62.581,18.348v5.627h3.451v1.05l-4.169-.006-.219.163c-.035.024-.338-.138-.338-.157v-6.678h1.275Z" fill="#f2efcf"/>
        <path d="M45.099,18.348v6.678c-.245.041-.636-.057-.852-.001-.076.02-.033.356-.258.01-.011-.017-.091-.005-.091-.009v-6.678h1.2Z" fill="#f2efcf"/>
        <path d="M14.262,6.419c.047.265-.358.276-.426.324-.026.018-.431.424-.45.45-.048.068-.058.473-.324.426-.119-.297.102-.42.124-.475.035-.088.014-.196.05-.252.128-.202.367-.275.551-.349.055-.022.178-.243.475-.124Z" fill="#f2efcf"/>
      </g>
    </g>
  </g>
</svg>