<?xml version="1.0" encoding="UTF-8"?>
<svg id="b" data-name="Layer 2" xmlns="http://www.w3.org/2000/svg" width="40.74" height="54" viewBox="0 0 40.74 54">
  <g id="c" data-name="Layer 7">
    <g>
      <path d="M40.723,49.927c.022.165.022.652,0,.818-.113.837-1.101,1.175-1.82,1.226-1.295.092-2.696-.064-4.002-.004-.342-.04-.841-.305-.924-.65.015-.02.052.041.061.041h4.947c.056,0,.398-.111.47-.143.708-.322.744-1.373.043-1.719-.886-.437-3.373-.027-4.514-.147-.404-.042-.857-.28-1.048-.649,1.543.06,3.147-.081,4.683-.002.783.04,1.975.272,2.104,1.228Z" fill="#f2efcf"/>
      <path d="M20.526,0c-.972,1.345-1.749,2.893-2.066,4.537-.695,3.604.822,5.966,3.067,8.548,4.207,4.838,10.2,8.855,9.506,16.131-.915,9.595-13.691,13.432-21.769,13.68-.961.029-1.926-.047-2.884.039l3.385-5.385c3.269-5.222,4.651-11.173,4.219-17.329-.224-3.193-1.278-6.312-.94-9.528.477-4.532,3.253-8.864,7.481-10.693Z" fill="#f2efcf"/>
      <path d="M25.146,40.195l1.241-.537c5.73-2.726,7.93-8.887,6.179-14.878-.126-.432-.31-.848-.442-1.276-.01-.033-.063-.094-.008-.115.597.431,1.184.884,1.738,1.369,2.115,1.852,4.807,4.892,4.621,7.894-.24,3.885-4.153,5.744-7.434,6.631-1.909.516-3.914.879-5.896.911Z" fill="#f2efcf"/>
      <path d="M13.208,4.457l-.362.639c-1.93,3.853-2.328,7.822-1.007,11.955.016.05.043.057-.042.041-.258-.048-1.044-.495-1.315-.648-1.504-.844-3.313-2.212-3.929-3.881-1-2.711,1.006-4.646,3.003-6.096,1.11-.806,2.351-1.559,3.651-2.011Z" fill="#f2efcf"/>
      <path d="M.043,53.975c.042-.184.24-.351.396-.442.764-.45,3.131-.117,4.124-.169.451-.024,1.199-.09,1.388-.575.177-.455-.037-.904-.489-1.064-1.321-.469-5.53.7-5.461-1.611.035-1.172,1.308-1.374,2.228-1.415,1.501-.067,3.054.054,4.56.002-.154.413-.671.623-1.082.656-1.257.099-2.67-.114-3.921.004-.393.037-.872.185-.979.616-.133.539.264.856.746.956,1.296.269,3.739-.328,4.745.488.739.6.625,1.782-.204,2.25-.232.131-.785.306-1.043.306H.043Z" fill="#f2efcf"/>
      <path d="M33.078,48.741v3.046c0,.083-.101.456-.134.561-.517,1.636-2.362,1.718-3.811,1.626-3.282-.207-2.68-2.696-2.719-5.173l.061-.06c1.329.832.184,2.634,1.01,3.815.676.967,3.074,1.035,3.996.495,1.689-.989.166-3.234,1.374-4.187.062-.049.142-.123.224-.124Z" fill="#f2efcf"/>
      <path d="M23.817,51.154c.336-.048.729-.335.788-.684.14-.828-.433-1.107-1.154-1.157-1.268-.088-2.774.144-4.004-.003-.362-.043-.653-.285-.883-.548-.017-.093.04-.056.101-.061,1.354-.099,3.378-.078,4.743,0,1.014.059,2.035.392,1.983,1.614-.039.914-.611,1.184-1.371,1.411-.046.014-.073-.027-.059.062l1.389,2.168c.01.031-.031.021-.061.021-.983-.016-1.456-1.538-1.983-2.188-1.008-.189-2.52.408-3.148-.634h3.659Z" fill="#f2efcf"/>
      <path d="M20.035,53.975c-.422-.007-.757-.194-1.021-.512l-2.597-3.944-2.596,4.015c-.28.268-.63.431-1.022.441l3.598-5.602,3.638,5.602Z" fill="#f2efcf"/>
      <path d="M14.271,48.701c.053.047-.301.364-.355.402-.117.083-.474.252-.606.252h-2.31v3.496c0,.031-.054.29-.069.34-.078.271-.34.686-.626.743v-4.58h-2.821c.142-.259.406-.469.686-.561.063-.021.354-.093.397-.093h5.703Z" fill="#f2efcf"/>
    </g>
  </g>
</svg>